<svg xmlns="http://www.w3.org/2000/svg" viewBox="0 0 48 48" role="img" aria-hidden="true">
  <circle cx="24" cy="24" r="22" fill="#ffb300"/>
  <path d="M24 11.5a3.5 3.5 0 1 1 0 7 3.5 3.5 0 0 1 0-7Zm-5.7 9.9h11.4a1.7 1.7 0 0 1 1.4 2.7l-3.5 5.1 1.9 10.6a1.7 1.7 0 0 1-3.3.6l-1.5-8.4h-1.4l-1.5 8.4a1.7 1.7 0 1 1-3.3-.6l1.9-10.6-3.5-5.1a1.7 1.7 0 0 1 1.4-2.7Zm-5.4 4.1a1.7 1.7 0 0 1 2.4 0l3 3a1.7 1.7 0 0 1-2.4 2.4l-3-3a1.7 1.7 0 0 1 0-2.4Zm22.9 0a1.7 1.7 0 0 1 0 2.4l-3 3a1.7 1.7 0 0 1-2.4-2.4l3-3a1.7 1.7 0 0 1 2.4 0Z" fill="#111"/>
</svg>
